<?xml version="1.0" encoding="utf-8"?>
<!-- Generator: Adobe Illustrator 15.1.0, SVG Export Plug-In  -->
<!DOCTYPE svg PUBLIC "-//W3C//DTD SVG 1.1//EN" "http://www.w3.org/Graphics/SVG/1.1/DTD/svg11.dtd" [
	<!ENTITY ns_flows "http://ns.adobe.com/Flows/1.0/">
]>
<svg version="1.1"
	 xmlns="http://www.w3.org/2000/svg" xmlns:xlink="http://www.w3.org/1999/xlink" xmlns:a="http://ns.adobe.com/AdobeSVGViewerExtensions/3.0/"
	 x="0px" y="0px" width="271px" height="41px" viewBox="-4.8754883 -4.7963867 271 41"
	 enable-background="new -4.8754883 -4.7963867 271 41" xml:space="preserve">
<defs>
</defs>
<path fill="#FFFFFF" d="M4.7045898,33.6508789c0,1.5361328-1.1523438,1.8242188-2.3041992,1.8242188
	C1.2480469,35.4750977,0,35.1870117,0,33.6508789V6.2885742C0,3.984375,1.3920898,2.640625,4.3686523,2.640625h4.65625
	c6.7207031,0,10.8969727,2.7358398,10.8969727,8.7363281c0,4.4643555-2.1123047,6.625-4.7045898,8.112793
	c-0.9121094,0.5283203-1.1518555,0.815918-1.1518555,1.4882813c0,0.527832,0.2880859,1.0078125,0.671875,1.5361328
	l6.8168945,9.9848633c0.1435547,0.2397461,0.2875977,0.5761719,0.2875977,0.9599609
	c0,0.9121094-0.6240234,2.0161133-2.4960938,2.0161133c-1.4882813,0-1.9682617-0.6240234-2.4960938-1.4399414l-6.0483398-9.6967773
	c-1.0561523-1.6323242-1.8242188-2.3041992-3.7924805-2.3041992c-1.7280273,0-2.3041992,0.527832-2.3041992,1.5361328V33.6508789z
	 M4.7045898,16.8017578c0,2.0161133,0.3359375,2.2080078,2.6879883,2.2080078c4.7045898,0,7.6806641-1.4399414,7.6806641-6.9125977
	c0-4.512207-2.3041992-5.9526367-6.2402344-5.9526367c-3.6005859,0-4.128418,0.0961914-4.128418,2.2084961V16.8017578z"/>
<path fill="#FFFFFF" d="M36.1923828,9.1210938c7.4882813,0,10.6567383,4.2241211,10.6567383,12.6728516
	c0,11.0888672-4.3203125,13.9692383-10.7050781,13.9692383c-6.4326172,0-10.8486328-2.8803711-10.8486328-12.7211914
	C25.2954102,13.1054688,28.6074219,9.1210938,36.1923828,9.1210938z M36.144043,12.6733398
	c-5.0400391,0-6.0483398,1.6801758-6.0483398,9.6967773c0,8.5927734,1.6323242,9.8408203,6.0483398,9.8408203
	c4.8007813,0,5.9047852-1.2480469,5.9047852-9.8408203C42.0488281,14.1611328,40.6083984,12.6733398,36.144043,12.6733398z"/>
<path fill="#FFFFFF" d="M52.6074219,1.7285156C52.6074219,0.2402344,53.8071289,0,54.9116211,0
	c1.1518555,0,2.2558594,0.2402344,2.2558594,1.7285156v6.0483398c0,1.3442383,0.4321289,1.6323242,3.168457,1.6323242
	c9.9370117,0,12.5771484,3.3120117,12.5771484,13.0571289c0,9.9848633-3.4082031,13.296875-11.7128906,13.296875
	c-2.496582,0-4.8007813-0.144043-6.4326172-0.4799805c-1.5361328-0.3359375-2.1601563-1.0083008-2.1601563-2.3041992V1.7285156z
	 M57.1674805,29.0908203c0,2.6401367,0.5283203,3.2163086,4.9926758,3.2163086s5.9526367-1.7763672,5.9526367-9.7929688
	c0-7.5366211-0.8164063-9.6010742-7.5371094-9.6010742c-2.9760742,0-3.4082031,1.1523438-3.4082031,4.3203125V29.0908203z"/>
<path fill="#FFFFFF" d="M88.65625,9.1210938c7.4882813,0,10.6567383,4.2241211,10.6567383,12.6728516
	c0,11.0888672-4.3203125,13.9692383-10.7050781,13.9692383c-6.4326172,0-10.8486328-2.8803711-10.8486328-12.7211914
	C77.7592773,13.1054688,81.0712891,9.1210938,88.65625,9.1210938z M88.6079102,12.6733398
	c-5.0400391,0-6.0483398,1.6801758-6.0483398,9.6967773c0,8.5927734,1.6323242,9.8408203,6.0483398,9.8408203
	c4.8007813,0,5.9047852-1.2480469,5.9047852-9.8408203C94.5126953,14.1611328,93.0722656,12.6733398,88.6079102,12.6733398z"/>
<path fill="#FFFFFF" d="M115.2001953,33.0268555c1.5361328,0,2.6879883-0.144043,3.7441406-0.3359375
	c0.8642578-0.1918945,1.2480469,0.5283203,1.2480469,1.2963867c0,0.5756836-0.2397461,0.9121094-0.7202148,1.1518555
	c-1.1518555,0.4321289-2.9760742,0.6240234-4.7041016,0.6240234c-6.0488281,0-10.3208008-3.1201172-10.3208008-13.2490234
	c0-10.8969727,4.7041016-13.3930664,10.4165039-13.3930664c1.8725586,0,3.456543,0.144043,4.5126953,0.6240234
	c0.527832,0.2397461,0.7197266,0.6240234,0.7197266,1.1518555c0,0.6723633-0.2875977,1.3442383-1.199707,1.2001953
	c-1.1044922-0.1918945-2.2563477-0.3359375-3.7924805-0.3359375c-4.800293,0-7.0566406,2.2080078-7.0566406,10.7529297
	C108.0473633,30.1469727,110.2553711,33.0268555,115.2001953,33.0268555z"/>
<path fill="#FFFFFF" d="M133.3920898,9.1210938c7.5366211,0,10.2246094,3.7919922,10.2246094,12.7207031
	c0,11.3291016-3.6000977,13.9213867-10.2729492,13.9213867c-6.3842773,0-10.4165039-2.5922852-10.4165039-12.6728516
	C122.9272461,12.6733398,125.8554688,9.1210938,133.3920898,9.1210938z M133.3920898,11.8574219
	c-5.8085938,0-6.8647461,1.7758789-6.8647461,10.5126953c0,9.3608398,1.7763672,10.6567383,6.8647461,10.6567383
	c5.2324219,0,6.6723633-1.2958984,6.6723633-10.6567383C140.0644531,13.4414063,138.4321289,11.8574219,133.3920898,11.8574219z"/>
<path fill="#FFFFFF" d="M182.3535156,33.9389648c0,1.2480469-0.671875,1.5361328-1.6801758,1.5361328
	c-0.9599609,0-1.7280273-0.2880859-1.7280273-1.5361328V17.6176758c0-4.2724609-1.3920898-5.7602539-6.1445313-5.7602539
	c-1.4399414,0-3.1201172,0.2397461-4.0322266,0.5756836c-0.8642578,0.2880859-1.1040039,0.7202148-1.1040039,1.9204102v19.5854492
	c0,1.2480469-0.7202148,1.5361328-1.6801758,1.5361328c-1.0083008,0-1.7285156-0.2880859-1.7285156-1.5361328V15.2172852
	c0-2.5922852-2.2080078-3.3598633-5.4243164-3.3598633c-1.7280273,0-3.5043945,0.0957031-4.5605469,0.4799805
	c-0.7197266,0.2875977-0.8637695,0.9121094-0.8637695,1.9199219v19.6816406c0,1.2480469-0.6723633,1.5361328-1.6323242,1.5361328
	c-1.0078125,0-1.7763672-0.2397461-1.7763672-1.5361328V12.5771484c0-1.7280273,0.3842773-2.3041992,1.5844727-2.6401367
	c2.3999023-0.671875,5.2802734-0.815918,7.2485352-0.815918c2.4003906,0,4.6083984,0.1918945,6.3364258,1.0078125
	c0.2880859,0.144043,0.4799805,0.2402344,0.7202148,0.2402344s0.5761719-0.144043,0.8642578-0.2402344
	c1.8237305-0.7197266,4.6083984-1.0078125,6.2402344-1.0078125c6.6728516,0,9.3608398,1.8242188,9.3608398,7.7763672V33.9389648z"/>
<path fill="#FFFFFF" d="M198.8632813,9.1210938c7.5366211,0,10.2246094,3.7919922,10.2246094,12.7207031
	c0,11.3291016-3.6000977,13.9213867-10.2729492,13.9213867c-6.3842773,0-10.4165039-2.5922852-10.4165039-12.6728516
	C188.3984375,12.6733398,191.3266602,9.1210938,198.8632813,9.1210938z M198.8632813,11.8574219
	c-5.8085938,0-6.8647461,1.7758789-6.8647461,10.5126953c0,9.3608398,1.7763672,10.6567383,6.8647461,10.6567383
	c5.2324219,0,6.6723633-1.2958984,6.6723633-10.6567383C205.5356445,13.4414063,203.9038086,11.8574219,198.8632813,11.8574219z"/>
<path fill="#FFFFFF" d="M215.4702148,1.5361328C215.4702148,0.2880859,216.237793,0,217.1499023,0
	c1.0083008,0,1.7285156,0.2880859,1.7285156,1.5361328v6.7685547c0,0.8642578,0.2397461,1.1523438,1.9199219,1.1523438
	c0.3842773,0,1.7763672-0.144043,2.8325195-0.144043c8.4487305,0,11.1845703,3.3120117,11.1845703,12.8652344
	c0,9.8886719-3.0239258,13.5849609-11.3286133,13.5849609c-2.3041992,0-4.3203125-0.144043-5.9047852-0.4321289
	c-1.6318359-0.2397461-2.1118164-0.8637695-2.1118164-2.2080078V1.5361328z M218.878418,30.1948242
	c0,2.5922852,0.8637695,2.9282227,4.9443359,2.9282227c5.7124023,0,7.4404297-2.3520508,7.4404297-10.9448242
	c0-7.9208984-1.487793-10.2250977-7.7285156-10.2250977c-2.7841797,0-4.65625,0.6240234-4.65625,3.0722656V30.1948242z"/>
<path fill="#FFFFFF" d="M250.7988281,9.1210938c7.5366211,0,10.2246094,3.7919922,10.2246094,12.7207031
	c0,11.3291016-3.6000977,13.9213867-10.2729492,13.9213867c-6.3842773,0-10.4165039-2.5922852-10.4165039-12.6728516
	C240.3339844,12.6733398,243.262207,9.1210938,250.7988281,9.1210938z M250.7988281,11.8574219
	c-5.8085938,0-6.8647461,1.7758789-6.8647461,10.5126953c0,9.3608398,1.7763672,10.6567383,6.8647461,10.6567383
	c5.2324219,0,6.6723633-1.2958984,6.6723633-10.6567383C257.4711914,13.4414063,255.8393555,11.8574219,250.7988281,11.8574219z"/>
</svg>
