<?xml version="1.0" encoding="utf-8"?>
<!-- Generator: Adobe Illustrator 15.1.0, SVG Export Plug-In  -->
<!DOCTYPE svg PUBLIC "-//W3C//DTD SVG 1.1//EN" "http://www.w3.org/Graphics/SVG/1.1/DTD/svg11.dtd" [
	<!ENTITY ns_flows "http://ns.adobe.com/Flows/1.0/">
]>
<svg version="1.1"
	 xmlns="http://www.w3.org/2000/svg" xmlns:xlink="http://www.w3.org/1999/xlink" xmlns:a="http://ns.adobe.com/AdobeSVGViewerExtensions/3.0/"
	 x="0px" y="0px" width="439px" height="171px" viewBox="-1.7573242 -0.6787109 439 171"
	 enable-background="new -1.7573242 -0.6787109 439 171" xml:space="preserve">
<defs>
</defs>
<path fill="#FFFFFF" d="M0,46.7148438l6.7636719-8.1083984c4.6831055,3.8681641,9.5888672,6.3232422,15.5351563,6.3232422
	c4.6826172,0,7.5078125-1.8598633,7.5078125-4.909668v-0.1489258c0-2.9008789-1.7841797-4.3886719-10.4814453-6.6201172
	C8.8447266,30.5727539,2.0810547,27.671875,2.0810547,17.3320313v-0.1489258
	c0-9.4472656,7.5820313-15.6953125,18.2109375-15.6953125c7.581543,0,14.0483398,2.3803711,19.3256836,6.6206055
	l-5.9462891,8.628418c-4.6083984-3.1982422-9.1425781-5.1323242-13.527832-5.1323242s-6.6904297,2.0083008-6.6904297,4.5375977
	v0.1484375c0,3.421875,2.2304688,4.5380859,11.2241211,6.84375c10.5551758,2.7524414,16.5014648,6.5463867,16.5014648,15.6210938
	v0.1489258c0,10.3398438-7.8789063,16.1416016-19.1030273,16.1416016C14.1972656,55.0458984,6.2436523,52.293457,0,46.7148438z"/>
<path fill="#FFFFFF" d="M48.9604492,42.9951172v-18.894043H44.203125v-9.6699219h4.7573242V4.2402344h11.2983398v10.190918
	h9.3657227v9.6699219h-9.3657227v17.034668c0,2.6040039,1.1147461,3.8681641,3.6420898,3.8681641
	c2.0810547,0,3.9394531-0.5205078,5.574707-1.4130859v9.074707c-2.378418,1.4135742-5.1289063,2.3061523-8.9199219,2.3061523
	C53.6430664,54.9716797,48.9604492,52.2192383,48.9604492,42.9951172z"/>
<path fill="#FFFFFF" d="M73.2729492,42.8466797v-0.1489258c0-8.703125,6.6152344-12.7197266,16.0551758-12.7197266
	c4.0141602,0,6.9125977,0.6694336,9.7373047,1.6362305v-0.6694336c0-4.6865234-2.8989258-7.2900391-8.5478516-7.2900391
	c-4.3110352,0-7.3588867,0.8183594-11.0009766,2.1572266l-2.8242188-8.6289063
	c4.3852539-1.9335938,8.6967773-3.1982422,15.4604492-3.1982422c6.1699219,0,10.6293945,1.6367188,13.4541016,4.4628906
	c2.9731445,2.9755859,4.3110352,7.3642578,4.3110352,12.7202148v23.1342773H98.9912109V49.987793
	c-2.7504883,3.0498047-6.5405273,5.0581055-12.0415039,5.0581055
	C79.4428711,55.0458984,73.2729492,50.7314453,73.2729492,42.8466797z M99.2143555,40.2431641V38.234375
	c-1.9326172-0.8920898-4.4599609-1.4873047-7.2099609-1.4873047c-4.831543,0-7.8046875,1.9335938-7.8046875,5.5043945v0.1489258
	c0,3.0498047,2.5268555,4.8349609,6.1689453,4.8349609C95.6464844,47.2353516,99.2143555,44.3344727,99.2143555,40.2431641z"/>
<path fill="#FFFFFF" d="M115.3647461,34.5898438v-0.1484375c0-11.3813477,8.6967773-20.7543945,20.887207-20.7543945
	c7.5073242,0,12.1899414,2.5292969,15.90625,6.6953125l-6.9125977,7.4384766
	c-2.5273438-2.6777344-5.0546875-4.3891602-9.0683594-4.3891602c-5.6489258,0-9.6625977,4.9838867-9.6625977,10.8608398v0.1489258
	c0,6.0991211,3.9394531,11.0087891,10.1088867,11.0087891c3.7905273,0,6.3920898-1.6362305,9.1425781-4.2402344l6.6152344,6.6948242
	c-3.8647461,4.2402344-8.3251953,7.2900391-16.2783203,7.2900391
	C124.1357422,55.1948242,115.3647461,45.9707031,115.3647461,34.5898438z"/>
<path fill="#FFFFFF" d="M157.1010742,0h11.2978516v28.9360352l13.230957-14.5048828h13.5283203l-15.1635742,15.6953125
	l15.6835938,24.1757813h-13.0820313l-10.1831055-16.3652344l-4.0141602,4.2402344v12.125h-11.2978516V0z"/>
<path fill="#FFFFFF" d="M195.6625977,42.8466797v-0.1489258c0-8.703125,6.6152344-12.7197266,16.0551758-12.7197266
	c4.0141602,0,6.9125977,0.6694336,9.7368164,1.6362305v-0.6694336c0-4.6865234-2.8974609-7.2900391-8.5478516-7.2900391
	c-4.3105469,0-7.3583984,0.8183594-11,2.1572266l-2.8251953-8.6289063
	c4.3857422-1.9335938,8.6972656-3.1982422,15.4609375-3.1982422c6.1699219,0,10.6289063,1.6367188,13.4541016,4.4628906
	c2.9726563,2.9755859,4.3105469,7.3642578,4.3105469,12.7202148v23.1342773h-10.9267578V49.987793
	c-2.75,3.0498047-6.5405273,5.0581055-12.0410156,5.0581055C201.8320313,55.0458984,195.6625977,50.7314453,195.6625977,42.8466797z
	 M221.6040039,40.2431641V38.234375c-1.9326172-0.8920898-4.4599609-1.4873047-7.2104492-1.4873047
	c-4.831543,0-7.8041992,1.9335938-7.8041992,5.5043945v0.1489258c0,3.0498047,2.5268555,4.8349609,6.1689453,4.8349609
	C218.0356445,47.2353516,221.6040039,44.3344727,221.6040039,40.2431641z"/>
<path fill="#FFFFFF" d="M238.1264648,34.4414063v-0.1489258c0-13.3154297,8.6972656-20.6054688,18.1367188-20.6054688
	c6.0205078,0,9.7373047,2.7524414,12.4130859,5.9506836V0h11.2988281v54.3022461h-11.2988281V48.574707
	c-2.75,3.71875-6.5410156,6.4711914-12.4130859,6.4711914C246.972168,55.0458984,238.1264648,47.7558594,238.1264648,34.4414063z
	 M268.824707,34.4414063v-0.1489258c0-6.6206055-4.3847656-11.0092773-9.6621094-11.0092773
	s-9.7373047,4.3144531-9.7373047,11.0092773v0.1489258c0,6.6196289,4.4599609,11.0087891,9.7373047,11.0087891
	S268.824707,41.0610352,268.824707,34.4414063z"/>
<path fill="#FFFFFF" d="M286.074707,34.5898438v-0.1484375c0-11.3813477,8.1015625-20.7543945,19.6972656-20.7543945
	c13.3056641,0,19.4003906,10.3398438,19.4003906,21.6464844c0,0.8925781-0.0742188,1.9345703-0.1484375,2.9755859h-27.7255859
	c1.1162109,5.1323242,4.6835938,7.8110352,9.7373047,7.8110352c3.7910156,0,6.5410156-1.1904297,9.6630859-4.0913086
	l6.4667969,5.7270508c-3.7158203,4.6123047-9.0683594,7.4389648-16.2783203,7.4389648
	C294.9204102,55.1948242,286.074707,46.7890625,286.074707,34.5898438z M314.1713867,31.2421875
	c-0.6689453-5.0581055-3.6425781-8.4794922-8.3994141-8.4794922c-4.6826172,0-7.7294922,3.347168-8.6220703,8.4794922H314.1713867z"
	/>
<path fill="#FFFFFF" d="M331.2368164,14.4311523h11.2978516v5.6533203
	c2.6015625-3.3476563,6.0214844-6.3974609,11.7441406-6.3974609c5.203125,0,9.1425781,2.3061523,11.2236328,6.3232422
	c3.4941406-4.0913086,7.65625-6.3232422,13.0830078-6.3232422c8.3984375,0,13.453125,5.0585938,13.453125,14.6542969v25.9609375
	h-11.2978516V32.0610352c0-5.3564453-2.3789063-8.1083984-6.6152344-8.1083984s-6.8378906,2.7519531-6.8378906,8.1083984v22.2412109
	H355.987793V32.0610352c0-5.3564453-2.3779297-8.1083984-6.6152344-8.1083984c-4.2363281,0-6.8378906,2.7519531-6.8378906,8.1083984
	v22.2412109h-11.2978516V14.4311523z"/>
<path fill="#FFFFFF" d="M424.1040039,14.4311523h11.7441406l-15.3125,40.8378906
	c-3.046875,8.1083984-6.3173828,11.1582031-13.0820313,11.1582031c-4.0869141,0-7.1347656-1.0410156-10.0341797-2.7524414
	l3.7900391-8.1826172c1.4873047,0.8930664,3.3457031,1.5620117,4.8320313,1.5620117
	c1.9335938,0,2.9726563-0.5947266,3.9394531-2.6030273l-15.609375-40.0200195h11.9667969l9.0693359,27.1513672
	L424.1040039,14.4311523z"/>
<path fill="#FFFFFF" d="M2.4365234,112.3862305c0.0419922-1.3320313,0.1772461-2.3515625,0.4057617-3.0595703
	c0.2290039-0.7080078,0.6137695-1.1865234,1.1542969-1.4365234c0.5415039-0.25,1.2275391-0.3330078,2.0595703-0.25
	s1.4560547,1.4882813,1.8720703,4.2148438c1.7475586-0.3320313,3.2558594-0.8212891,4.5249023-1.4667969
	c1.2685547-0.6455078,2.4750977-1.2646484,3.6196289-1.8583984c1.1435547-0.5927734,2.4853516-1.2226563,4.0249023-1.8886719
	s2.9746094-1.3994141,4.3061523-2.2011719c1.3310547-0.8017578,2.3295898-1.5927734,2.9956055-2.3730469
	c0.6655273-0.78125,1.1650391-1.5712891,1.4980469-2.3730469c0.3325195-0.8017578,0.894043-1.2958984,1.6845703-1.4833984
	c0.9365234,0.0214844,1.6225586,0.2138672,2.0595703,0.578125s0.7070313,1.2128906,0.8115234,2.5439453
	c-0.0419922,0.5830078-0.1875,1.1552734-0.4370117,1.7177734c-0.2495117,0.5615234-0.7958984,1.2333984-1.6381836,2.0136719
	c-0.8422852,0.78125-1.7373047,1.4160156-2.6835938,1.9052734c-0.9467773,0.4892578-1.9970703,1.0878906-3.1513672,1.7949219
	c-1.1547852,0.7080078-2.309082,1.6552734-3.4638672,2.8417969c-1.1542969,1.1865234-1.9868164,2.3369141-2.4960938,3.4501953
	c-0.5102539,1.1132813-1.0351563,2.1230469-1.5756836,3.0283203c-0.5415039,0.9052734-1.362793,1.6445313-2.465332,2.2167969
	s-2.8081055,0.9316406-5.1171875,1.0771484c-1.5395508-0.0419922-2.7460938-0.2392578-3.6196289-0.5927734
	s-1.7895508-1.4052734-2.7460938-3.1533203C3.1025391,115.8833008,2.5615234,114.1352539,2.4365234,112.3862305z
	 M11.1425781,116.7260742c1.1855469-0.1865234,2.2724609-0.5976563,3.2607422-1.2333984
	c0.987793-0.6347656,1.9916992-1.5810547,3.0112305-2.8408203c1.0185547-1.2597656,1.4663086-2.1181641,1.3413086-2.5761719
	c-2.4545898,1.7900391-4.3837891,2.9765625-5.7880859,3.5595703s-2.8237305,1.1035156-4.2592773,1.5615234
	C9.1455078,116.4038086,9.956543,116.9135742,11.1425781,116.7260742z"/>
<path fill="#FFFFFF" d="M27.7021484,109.6381836c0.5410156-1.1650391,1.4248047-2.3730469,2.6523438-3.6220703
	c1.2275391-1.2480469,2.4545898-2.3310547,3.6821289-3.2470703c1.2270508-0.9160156,2.4858398-1.5400391,3.7758789-1.8730469
	l1.4350586-0.0625c1.2895508,0.0419922,2.4130859,0.3955078,3.3701172,1.0615234
	c0.956543,0.6660156,1.3623047,1.8417969,1.2167969,3.5283203s-0.9780273,3.1435547-2.4960938,4.3710938
	c-1.5185547,1.2285156-3.2348633,2.1132813-5.1484375,2.6542969c-1.9145508,0.5419922-2.9438477,1.0302734-3.0893555,1.4677734
	c-0.1459961,0.4365234,0.1665039,0.9160156,0.9360352,1.4365234s2.496582,0.8535156,5.1796875,0.9990234
	c2.6835938,0.1455078,4.8779297,0,6.5839844-0.4375c1.7055664-0.4375,3.0893555-0.9052734,4.1503906-1.4052734
	c1.0605469-0.4990234,1.8925781-0.8320313,2.4960938-0.9990234c0.6030273-0.1660156,1.0922852,0.1455078,1.4667969,0.9365234
	c-1.0820313,1.5410156-2.2680664,2.6757813-3.5576172,3.4033203c-1.2900391,0.7294922-2.9018555,1.3847656-4.8364258,1.9677734
	s-4.2958984,0.9365234-7.0830078,1.0615234h-1.6850586c-3.0375977-0.2910156-5.0864258-0.6972656-6.1469727-1.2177734
	c-1.0610352-0.5205078-1.8833008-1.1347656-2.465332-1.8427734c-0.5825195-0.7070313-0.9985352-1.7685547-1.2480469-3.1845703
	C26.8911133,112.4692383,27.1616211,110.8041992,27.7021484,109.6381836z M32.3828125,110.5131836
	c2.5375977-0.8330078,4.2329102-1.6240234,5.0864258-2.3730469c0.8525391-0.75,1.2167969-1.4365234,1.0917969-2.0615234
	c-0.1245117-0.6240234-0.8320313-0.6035156-2.121582,0.0625c-1.2900391,0.6669922-2.1743164,1.3427734-2.6523438,2.0302734
	C33.3081055,108.8579102,32.840332,109.6381836,32.3828125,110.5131836z"/>
<path fill="#FFFFFF" d="M49.8168945,114.2592773c2.7460938-1.5400391,5.5854492-3.8818359,8.5185547-7.0253906
	c2.9331055-3.1425781,5.2109375-5.015625,6.8334961-5.6201172c1.6225586-0.6035156,3.4116211-0.9052734,5.3671875-0.9052734
	c0.7490234,0.0419922,1.3935547,0.2080078,1.9345703,0.5c0.5405273,0.2910156,0.8735352,0.7802734,0.9985352,1.4667969
	c0.125,0.6875,0.1040039,1.4472656-0.0625,2.2792969c-0.1665039,0.8330078-0.6660156,1.8427734-1.4975586,3.0292969
	c-0.8325195,1.1865234-1.8208008,2.1855469-2.9643555,2.9970703c-1.1445313,0.8125-1.9345703,1.5507813-2.371582,2.2167969
	c-0.4370117,0.6669922-0.4677734,1.3222656-0.09375,1.9677734c0.3745117,0.6455078,1.8203125,0.7080078,4.3374023,0.1875
	s4.3789063-1,5.5854492-1.4365234c1.2060547-0.4375,2.496582-0.9677734,3.8691406-1.5927734l0.7490234,2.8105469
	c-3.0375977,1.4160156-5.7412109,2.6220703-8.112793,3.6220703c-2.371582,0.9990234-4.8676758,1.6650391-7.4887695,1.9980469
	c-1.7475586,0-3.0791016-0.0722656-3.9941406-0.21875c-0.9155273-0.1455078-1.7583008-0.5302734-2.5273438-1.1552734
	c-0.7700195-0.6240234-1.2485352-1.3945313-1.4355469-2.3105469c-0.1875-0.9160156-0.03125-1.8105469,0.4677734-2.6855469
	c0.4995117-0.8740234,1.2485352-1.7060547,2.2470703-2.4980469c0.9985352-0.7900391,2.059082-1.4248047,3.1826172-1.9042969
	c1.1235352-0.4785156,2.0908203-1.1552734,2.9018555-2.0292969c0.8115234-0.8740234,1.0087891-1.5400391,0.5927734-1.9990234
	c-0.4160156-0.4570313-1.0195313-0.5927734-1.8095703-0.4052734c-0.7910156,0.1875-2.6630859,1.7587891-5.6166992,4.7148438
	c-2.9541016,2.9560547-5.9082031,5.0585938-8.8618164,6.3066406L49.8168945,114.2592773z"/>
<path fill="#FFFFFF" d="M83.7783203,108.9360352c1.5390625-2.0087891,3.3022461-3.4550781,5.2890625-4.3398438
	c1.9863281-0.8847656,3.5830078-1.8164063,4.7895508-2.7949219s2.3608398-1.3115234,3.4638672-0.9990234
	c1.1020508,0.3125,1.6430664,1.0097656,1.6225586,2.0917969c-0.0209961,1.0830078-0.6450195,1.9980469-1.8720703,2.7480469
	c-1.2280273,0.7490234-2.1430664,1.5507813-2.7460938,2.4042969c-0.6035156,0.8535156-1.0922852,1.8007813-1.4667969,2.8408203
	c-0.3740234,1.0410156-0.3847656,2.0820313-0.0307617,3.1230469c0.3530273,1.0410156,1.0292969,1.7167969,2.027832,2.0292969
	s2.559082,0.4580078,4.6806641,0.4375c2.1220703-0.0205078,3.9833984-0.2392578,5.5854492-0.65625
	c1.6015625-0.4160156,3.0058594-0.9882813,4.2124023-1.7167969c1.2060547-0.7285156,2.2255859-0.9892578,3.0581055-0.78125
	l0.3745117,1.4990234c-0.5415039,0.8740234-1.3212891,1.6132813-2.340332,2.2167969
	c-1.0195313,0.6044922-2.0283203,1.1142578-3.0268555,1.5302734s-2.4238281,0.8330078-4.2749023,1.2490234
	c-1.8515625,0.4160156-3.9628906,0.7705078-6.3344727,1.0615234l-2.6210938,0.125
	c-2.121582-0.25-3.6611328-0.65625-4.6181641-1.2177734c-0.9570313-0.5625-1.7368164-1.3222656-2.3398438-2.2792969
	c-0.6040039-0.9570313-0.9262695-1.9150391-0.9672852-2.8730469c-0.0419922-0.9570313,0.0722656-1.9091797,0.3432617-2.8564453
	c0.2700195-0.9472656-0.015625-0.921875-0.8583984,0.0771484c-0.8422852,1-2.0024414,1.9257813-3.4790039,2.7792969
	c-1.4775391,0.8535156-2.7255859,1.5351563-3.7446289,2.0449219c-1.019043,0.5107422-1.7163086-0.2851563-2.090332-2.3886719
	C79.7841797,112.7299805,82.2387695,110.9448242,83.7783203,108.9360352z M114.0771484,84.378418l-1.1235352-0.3125
	c-1.1230469-1.2910156-1.9765625-2.2265625-2.5585938-2.8105469c0.5405273-1.1650391,1.5805664-2.2050781,3.1201172-3.1220703
	l1.1860352-0.0625c0.9985352,0.4580078,1.5180664,1.0615234,1.5600586,1.8115234
	c0.0415039,0.7490234,0.5615234,1.4570313,1.5600586,2.1230469l-0.4365234,1.0615234
	C116.3862305,83.690918,115.2832031,84.128418,114.0771484,84.378418z"/>
<path fill="#FFFFFF" d="M115.4438477,114.5717773c0.6655273,0.9990234,1.4873047,1.5195313,2.465332,1.5615234
	c0.9775391,0.0419922,1.9033203-0.2285156,2.7768555-0.8115234s1.9033203-1.1347656,3.0893555-1.6552734
	c1.1855469-0.5205078,2.340332-1.1660156,3.4633789-1.9355469c1.1235352-0.7705078,1.6850586-1.7382813,1.6850586-2.9042969
	c0-1.1650391-0.4370117-2.0712891-1.3105469-2.7167969c-0.8735352-0.6445313-1.237793-1.4667969-1.0922852-2.4667969
	c0.1455078-0.9990234,0.6030273-1.6855469,1.3730469-2.0605469c0.7695313-0.3740234,2.0488281-0.5820313,3.8378906-0.6240234
	c1.8725586,0.3740234,3.0161133,1.3115234,3.4326172,2.8095703c0.4160156,1.4990234,0.3847656,2.8935547-0.09375,4.1845703
	s0.1142578,2.4560547,1.7788086,3.4970703c1.6640625,1.0410156,3.1513672,1.3847656,4.4619141,1.0302734
	c1.3105469-0.3535156,2.0488281,0.0517578,2.215332,1.2177734c-0.2080078,1.2490234-0.5512695,1.9980469-1.0292969,2.2480469
	c-0.4790039,0.25-1.4462891,0.4794922-2.9023438,0.6865234c-1.4560547,0.2089844-3.2036133-0.2382813-5.2421875-1.3417969
	s-3.4946289-1.3222656-4.3681641-0.65625c-0.8740234,0.6669922-2.1845703,1.5302734-3.9316406,2.5917969
	c-1.7475586,1.0615234-3.4638672,1.9042969-5.1489258,2.5292969c-1.6845703,0.6240234-3.609375,0.9365234-5.7724609,0.9365234
	c-1.9970703-0.6660156-3.4121094-1.6962891-4.2436523-3.0908203c-0.8320313-1.3945313-1.2480469-2.9248047-1.2480469-4.5898438
	c0.2075195-1.1660156,1.0712891-2.4462891,2.5898438-3.8408203c1.5180664-1.3945313,2.9746094-2.5605469,4.3686523-3.4970703
	c1.3930664-0.9365234,2.8081055-1.6240234,4.2436523-2.0615234c1.4350586-0.4365234,2.4541016-0.3740234,3.0576172,0.1875
	c0.6030273,0.5625,0.9985352,1.2490234,1.1860352,2.0615234c0.1870117,0.8115234,0.1035156,1.4667969-0.25,1.9667969
	c-0.3535156,0.4990234-0.8735352,0.8330078-1.5600586,0.9990234c-0.6865234,0.1669922-1.6333008,0.3857422-2.8393555,0.65625
	c-1.206543,0.2705078-2.5068359,0.9365234-3.9003906,1.9980469
	C115.1420898,112.5424805,114.777832,113.5727539,115.4438477,114.5717773z"/>
<path fill="#FFFFFF" d="M142.9223633,111.9487305c3.1206055-2.9550781,5.5332031-5.2558594,7.2392578-6.9003906
	c1.7055664-1.6435547,2.9848633-2.7783203,3.8378906-3.4033203c0.8530273-0.6240234,1.6123047-1.0195313,2.2783203-1.1865234
	c0.7485352,0.125,1.2895508,0.2705078,1.6225586,0.4375c0.3325195,0.1669922,0.737793,0.5615234,1.2167969,1.1865234
	c0.4780273,0.6240234,0.3745117,1.6445313-0.3120117,3.0595703c-0.6865234,1.4160156-1.7788086,2.6025391-3.2763672,3.5595703
	c-1.4980469,0.9580078-2.7773438,1.8007813-3.8383789,2.5292969c-1.0605469,0.7285156-2.0073242,1.4472656-2.8393555,2.1542969
	c-0.8320313,0.7080078-1.206543,1.3642578-1.1230469,1.9677734c0.0825195,0.6035156,0.5927734,0.9052734,1.5288086,0.9052734
	s2.152832-0.2705078,3.6508789-0.8125c1.4975586-0.5410156,3.4008789-1.4248047,5.7099609-2.6533203
	s4.4101563-2.2480469,6.3032227-3.0605469c1.8925781-0.8115234,3.4013672-1.5185547,4.5244141-2.1230469
	c1.1235352-0.6035156,1.9550781-1.3837891,2.496582-2.3417969c0.5405273-0.9570313,1.1645508-1.6025391,1.8720703-1.9355469
	c0.7070313-0.3330078,1.2792969-0.1669922,1.7163086,0.4990234c0.4365234,0.6669922,0.5405273,1.7177734,0.3120117,3.1542969
	c-0.2290039,1.4355469-0.7490234,2.5283203-1.5600586,3.2783203c-0.8115234,0.7490234-1.6333008,1.4990234-2.465332,2.2480469
	s-1.3105469,1.3945313-1.4355469,1.9355469c-0.1245117,0.5419922,0.0102539,1.1972656,0.4057617,1.9677734
	c0.3950195,0.7695313,2.0175781,0.8632813,4.8676758,0.2802734c2.8500977-0.5820313,4.9194336-1.1757813,6.2094727-1.7792969
	s2.9956055-1.1132813,5.1176758-1.5302734l1.0610352,1.2490234c-0.3745117,0.9160156-1.456543,1.8222656-3.2451172,2.7167969
	c-1.7895508,0.8955078-4.2338867,1.7167969-7.3330078,2.4667969c-3.1000977,0.7490234-5.7524414,1.1240234-7.9570313,1.1240234
	c-2.246582,0-3.8276367-0.2597656-4.7426758-0.78125c-0.9160156-0.5195313-1.4462891-1.2480469-1.5917969-2.1855469
	c-0.1455078-0.9365234,0.6347656-2.5908203,2.340332-4.9638672c-2.7041016,1.4980469-5.0444336,2.6845703-7.0205078,3.5585938
	c-1.9765625,0.875-3.9423828,1.7177734-5.8974609,2.5292969c-1.9555664,0.8125-4.0151367,1.3222656-6.1782227,1.5302734
	c-0.5830078,0.0419922-1.1445313,0.0625-1.6850586,0.0625c-1.4150391,0-2.5795898-0.1875-3.4951172-0.5625
	c-1.2895508-0.5410156-1.9550781-1.4355469-1.9970703-2.6845703c-0.0410156,0-0.0620117-0.0205078-0.0620117-0.0625
	C139.1782227,116.175293,140.4262695,114.3637695,142.9223633,111.9487305z"/>
<path fill="#FFFFFF" d="M184.28125,112.3862305c0.0419922-1.3320313,0.1772461-2.3515625,0.4057617-3.0595703
	c0.2290039-0.7080078,0.6137695-1.1865234,1.1542969-1.4365234c0.5415039-0.25,1.2275391-0.3330078,2.0595703-0.25
	s1.4560547,1.4882813,1.8720703,4.2148438c1.7475586-0.3320313,3.2558594-0.8212891,4.5249023-1.4667969
	c1.2685547-0.6455078,2.4750977-1.2646484,3.6196289-1.8583984c1.1435547-0.5927734,2.4853516-1.2226563,4.0249023-1.8886719
	s2.9746094-1.3994141,4.3061523-2.2011719c1.3310547-0.8017578,2.3295898-1.5927734,2.9956055-2.3730469
	c0.6655273-0.78125,1.1650391-1.5712891,1.4980469-2.3730469c0.3325195-0.8017578,0.894043-1.2958984,1.6845703-1.4833984
	c0.9365234,0.0214844,1.6225586,0.2138672,2.0595703,0.578125s0.7070313,1.2128906,0.8115234,2.5439453
	c-0.0419922,0.5830078-0.1875,1.1552734-0.4370117,1.7177734c-0.2495117,0.5615234-0.7958984,1.2333984-1.6381836,2.0136719
	c-0.8422852,0.78125-1.7373047,1.4160156-2.6835938,1.9052734c-0.9467773,0.4892578-1.9970703,1.0878906-3.1513672,1.7949219
	c-1.1547852,0.7080078-2.309082,1.6552734-3.4638672,2.8417969c-1.1542969,1.1865234-1.9868164,2.3369141-2.4960938,3.4501953
	c-0.5102539,1.1132813-1.0351563,2.1230469-1.5756836,3.0283203c-0.5415039,0.9052734-1.362793,1.6445313-2.465332,2.2167969
	s-2.8081055,0.9316406-5.1171875,1.0771484c-1.5395508-0.0419922-2.7460938-0.2392578-3.6196289-0.5927734
	s-1.7895508-1.4052734-2.7460938-3.1533203C184.9472656,115.8833008,184.40625,114.1352539,184.28125,112.3862305z
	 M192.9873047,116.7260742c1.1855469-0.1865234,2.2724609-0.5976563,3.2607422-1.2333984
	c0.987793-0.6347656,1.9916992-1.5810547,3.0112305-2.8408203c1.0185547-1.2597656,1.4663086-2.1181641,1.3413086-2.5761719
	c-2.4545898,1.7900391-4.3837891,2.9765625-5.7880859,3.5595703s-2.8237305,1.1035156-4.2592773,1.5615234
	C190.9902344,116.4038086,191.8012695,116.9135742,192.9873047,116.7260742z"/>
<path fill="#FFFFFF" d="M253.0219727,102.2387695c0.1875,0.3955078,0.1464844,0.8115234-0.125,1.2490234
	c-0.2695313,0.4365234-0.6660156,0.8740234-1.1855469,1.3105469c-0.5195313,0.4375-0.8222656,0.9794922-0.9042969,1.6240234
	c-0.0839844,0.6455078-0.4785156,1.0205078-1.1855469,1.1240234c-0.7070313,0.1044922-1.4785156,0.0107422-2.3105469-0.28125
	c-0.8320313-0.2910156-1.5488281-0.3945313-2.1523438-0.3115234s-1.3007813,0.5722656-2.0898438,1.4667969
	c-0.7910156,0.8955078-1.4882813,1.7490234-2.0917969,2.5605469c-0.6035156,0.8125-1.0390625,1.6240234-1.3105469,2.4355469
	c-0.2695313,0.8115234-0.2070313,1.5507813,0.1875,2.2167969c0.3945313,0.6669922,0.9570313,1.1035156,1.6855469,1.3115234
	c0.7285156,0.2089844,1.7988281,0.2392578,3.2128906,0.09375c1.4160156-0.1455078,2.8515625-0.4375,4.3066406-0.8740234
	c1.4570313-0.4375,2.8808594-0.9052734,4.2753906-1.4052734c1.3925781-0.5,2.4023438-0.9257813,3.0273438-1.2802734
	c0.6230469-0.3535156,1.2050781-0.0517578,1.7460938,0.9052734c-0.1660156,0.9169922-0.5507813,1.5410156-1.1542969,1.8740234
	s-1.4355469,0.7490234-2.4960938,1.2490234c-1.0605469,0.4990234-2.1835938,0.9365234-3.3691406,1.3115234
	c-1.1855469,0.3740234-2.5078125,0.7382813-3.9628906,1.0927734c-1.4570313,0.3535156-3.0390625,0.6142578-4.7441406,0.7802734
	h-1.3105469c-0.7910156-0.0830078-1.5605469-0.1972656-2.3085938-0.34375
	c-0.7480469-0.1455078-1.4980469-0.5097656-2.2460938-1.0927734c-0.75-0.5820313-1.3945313-1.4775391-1.9355469-2.6855469
	l-0.125-1.1855469c0.0839844-1.1660156,0.4375-2.3730469,1.0605469-3.6220703
	c0.625-1.2490234,1.4355469-2.4560547,2.4355469-3.6220703c0.9980469-1.1660156,2.1210938-2.1650391,3.3691406-2.9980469
	c1.2480469-0.8320313,2.3613281-1.4462891,3.3398438-1.8417969c0.9765625-0.3955078,1.6210938-0.75,1.9335938-1.0615234
	c0.3125-0.3125,0.8945313-0.625,1.7480469-0.9375c0.8515625-0.3115234,1.6328125-0.4677734,2.3398438-0.4677734
	c0.5820313,0.0419922,1.0703125,0.1875,1.4667969,0.4365234
	C252.543457,101.5200195,252.8344727,101.8432617,253.0219727,102.2387695z"/>
<path fill="#FFFFFF" d="M261.7036133,114.5717773c0.6660156,0.9990234,1.4882813,1.5195313,2.4648438,1.5615234
	c0.9785156,0.0419922,1.9042969-0.2285156,2.7773438-0.8115234c0.875-0.5830078,1.9042969-1.1347656,3.0898438-1.6552734
	s2.3398438-1.1660156,3.4628906-1.9355469c1.1230469-0.7705078,1.6855469-1.7382813,1.6855469-2.9042969
	c0-1.1650391-0.4375-2.0712891-1.3105469-2.7167969c-0.8730469-0.6445313-1.2382813-1.4667969-1.0917969-2.4667969
	c0.1445313-0.9990234,0.6035156-1.6855469,1.3730469-2.0605469c0.7695313-0.3740234,2.0488281-0.5820313,3.8378906-0.6240234
	c1.8710938,0.3740234,3.015625,1.3115234,3.4316406,2.8095703c0.4160156,1.4990234,0.3847656,2.8935547-0.09375,4.1845703
	s0.1152344,2.4560547,1.7792969,3.4970703s3.1523438,1.3847656,4.4628906,1.0302734
	c1.3105469-0.3535156,2.046875,0.0517578,2.2148438,1.2177734c-0.2089844,1.2490234-0.5507813,1.9980469-1.0292969,2.2480469
	s-1.4472656,0.4794922-2.9023438,0.6865234c-1.4570313,0.2089844-3.203125-0.2382813-5.2421875-1.3417969
	s-3.4941406-1.3222656-4.3691406-0.65625c-0.8730469,0.6669922-2.1835938,1.5302734-3.9316406,2.5917969
	c-1.7460938,1.0615234-3.4628906,1.9042969-5.1484375,2.5292969c-1.6855469,0.6240234-3.609375,0.9365234-5.7714844,0.9365234
	c-1.9980469-0.6660156-3.4121094-1.6962891-4.2441406-3.0908203s-1.2480469-2.9248047-1.2480469-4.5898438
	c0.2070313-1.1660156,1.0703125-2.4462891,2.5898438-3.8408203c1.5175781-1.3945313,2.9746094-2.5605469,4.3671875-3.4970703
	c1.3945313-0.9365234,2.8085938-1.6240234,4.2441406-2.0615234c1.4355469-0.4365234,2.4550781-0.3740234,3.0585938,0.1875
	c0.6035156,0.5625,0.9980469,1.2490234,1.1855469,2.0615234c0.1875,0.8115234,0.1035156,1.4667969-0.25,1.9667969
	c-0.3535156,0.4990234-0.8730469,0.8330078-1.5605469,0.9990234c-0.6855469,0.1669922-1.6328125,0.3857422-2.8398438,0.65625
	c-1.2050781,0.2705078-2.5058594,0.9365234-3.9003906,1.9980469
	C261.402832,112.5424805,261.0375977,113.5727539,261.7036133,114.5717773z"/>
<path fill="#FFFFFF" d="M316.7954102,100.1459961c1.1445313-1.7060547,2.1425781-3.0078125,2.9960938-3.9023438
	c0.8515625-0.8955078,1.9863281-2.0712891,3.4003906-3.5283203s2.890625-2.9150391,4.4316406-4.3720703
	c1.5390625-1.4570313,2.984375-2.5605469,4.3359375-3.3095703c1.3535156-0.7490234,2.3613281-1.1650391,3.0273438-1.2490234
	c0.9570313,0.2089844,1.5917969,0.46875,1.9042969,0.78125c0.3105469,0.3125,0.5722656,0.8847656,0.7792969,1.7167969
	c-0.4160156,1.3740234-1.2792969,2.8212891-2.5898438,4.3398438c-1.3105469,1.5205078-2.7148438,3.0605469-4.2128906,4.6220703
	c-1.4980469,1.5605469-2.765625,2.6953125-3.8066406,3.4033203s-2.0898438,1.3007813-3.1503906,1.7792969
	c-1.0625,0.4794922-2.2167969,1.3955078-3.4648438,2.7480469c-1.2480469,1.3535156-2.5800781,2.8095703-3.9941406,4.3710938
	s-2.4121094,2.8623047-2.9941406,3.9033203c-0.5839844,1.0410156-1.2167969,1.9355469-1.9042969,2.6855469
	c-0.6855469,0.7490234-1.0292969,1.4042969-1.0292969,1.9667969c0,0.5615234,0.3632813,0.9267578,1.0917969,1.0927734
	c0.7285156,0.1669922,1.5390625-0.1142578,2.4335938-0.8427734s2.1640625-1.2382813,3.8066406-1.5302734
	c1.6425781-0.2910156,2.8925781-0.7070313,3.7441406-1.2490234c0.8535156-0.5410156,1.3730469-0.46875,1.5605469,0.21875
	c0.1875,0.6865234,0.3222656,1.2490234,0.40625,1.6855469c0.0820313,0.4375-0.5097656,0.9892578-1.7792969,1.6552734
	s-2.4433594,1.1347656-3.5253906,1.4052734s-2.0488281,0.5722656-2.9023438,0.9052734s-2.0488281,0.6767578-3.5878906,1.0302734
	s-2.9023438,0.4160156-4.0878906,0.1875s-1.8828125-0.7490234-2.0898438-1.5615234
	c-0.2089844-0.8115234-0.4179688-1.8837891-0.625-3.2158203c-0.9160156,0.7080078-1.9453125,1.4257813-3.0898438,2.1542969
	c-1.1425781,0.7294922-2.2246094,1.3642578-3.2441406,1.9052734s-2.0800781,1.1337891-3.1835938,1.7792969
	c-1.1015625,0.6455078-1.9863281,1.1552734-2.6523438,1.5302734s-2.0175781,0.6035156-4.0566406,0.6865234
	c-1.4550781-0.1669922-2.5371094-0.7705078-3.2441406-1.8105469c-0.4570313-0.75-0.6875-1.5400391-0.6875-2.3730469
	c0.2929688-1.4570313,0.8945313-2.7480469,1.8105469-3.8720703s1.9140625-2.3417969,2.9960938-3.6533203
	c1.0800781-1.3115234,2.1933594-2.4980469,3.3378906-3.5595703s2.2773438-2.0917969,3.4023438-3.0908203
	c1.1230469-0.9990234,2.3808594-1.8740234,3.7753906-2.6230469c1.3925781-0.7490234,2.765625-1.2900391,4.1191406-1.6240234
	c1.3515625-0.3320313,2.453125-0.4472656,3.3066406-0.3427734s1.5917969,0.4677734,2.2148438,1.0927734
	c0.625,0.6240234,0.96875,1.2695313,1.03125,1.9355469c0.0625,0.6669922,0.1660156,1.3740234,0.3105469,2.1230469
	c0.1464844,0.75,0.5820313,0.78125,1.3105469,0.09375c0.7285156-0.6865234,1.3535156-1.4462891,1.8730469-2.2792969
	C314.8188477,103.1235352,315.6508789,101.8530273,316.7954102,100.1459961z M291.7075195,118.8500977
	c0.3945313,0.3955078,1.5488281,0.1142578,3.4648438-0.84375c1.9121094-0.9570313,3.7441406-1.9980469,5.4902344-3.1220703
	c1.7480469-1.1240234,3.0175781-2.2480469,3.8066406-3.3720703c0.7910156-1.1240234,1.2910156-2.2792969,1.4980469-3.4658203
	c0.2089844-1.1865234,0.09375-1.9882813-0.3417969-2.4042969c-0.4375-0.4160156-1.1347656-0.3847656-2.0917969,0.09375
	s-2.1425781,1.3320313-3.5566406,2.5605469c-1.4160156,1.2275391-2.7148438,2.4658203-3.9003906,3.7148438
	s-2.3085938,2.6025391-3.3710938,4.0595703C291.6450195,117.527832,291.3129883,118.4545898,291.7075195,118.8500977z"/>
<path fill="#FFFFFF" d="M327.3129883,108.9360352c1.5390625-2.0087891,3.3027344-3.4550781,5.2890625-4.3398438
	s3.5839844-1.8164063,4.7910156-2.7949219c1.2050781-0.9785156,2.359375-1.3115234,3.4628906-0.9990234
	c1.1015625,0.3125,1.6425781,1.0097656,1.6230469,2.0917969c-0.0214844,1.0830078-0.6464844,1.9980469-1.8730469,2.7480469
	c-1.2265625,0.7490234-2.1425781,1.5507813-2.7460938,2.4042969s-1.0917969,1.8007813-1.4667969,2.8408203
	c-0.3730469,1.0410156-0.3847656,2.0820313-0.03125,3.1230469s1.03125,1.7167969,2.0292969,2.0292969
	s2.5585938,0.4580078,4.6796875,0.4375c2.1230469-0.0205078,3.984375-0.2392578,5.5859375-0.65625
	c1.6015625-0.4160156,3.0058594-0.9882813,4.2128906-1.7167969c1.2050781-0.7285156,2.2246094-0.9892578,3.0566406-0.78125
	l0.375,1.4990234c-0.5410156,0.8740234-1.3203125,1.6132813-2.3398438,2.2167969
	c-1.0195313,0.6044922-2.0273438,1.1142578-3.0273438,1.5302734c-0.9980469,0.4160156-2.4238281,0.8330078-4.2734375,1.2490234
	c-1.8535156,0.4160156-3.9628906,0.7705078-6.3359375,1.0615234l-2.6210938,0.125
	c-2.1210938-0.25-3.6601563-0.65625-4.6171875-1.2177734c-0.9570313-0.5625-1.7382813-1.3222656-2.3398438-2.2792969
	c-0.6035156-0.9570313-0.9257813-1.9150391-0.96875-2.8730469c-0.0410156-0.9570313,0.0742188-1.9091797,0.34375-2.8564453
	s-0.015625-0.921875-0.8574219,0.0771484c-0.84375,1-2.0019531,1.9257813-3.4804688,2.7792969
	c-1.4765625,0.8535156-2.7246094,1.5351563-3.7441406,2.0449219c-1.0175781,0.5107422-1.7148438-0.2851563-2.0898438-2.3886719
	C323.3188477,112.7299805,325.7739258,110.9448242,327.3129883,108.9360352z M357.6118164,84.378418l-1.1230469-0.3125
	c-1.1230469-1.2910156-1.9765625-2.2265625-2.5585938-2.8105469c0.5410156-1.1650391,1.5800781-2.2050781,3.1210938-3.1220703
	l1.1855469-0.0625c0.9980469,0.4580078,1.5175781,1.0615234,1.5605469,1.8115234
	c0.0410156,0.7490234,0.5605469,1.4570313,1.5585938,2.1230469l-0.4355469,1.0615234
	C359.9204102,83.690918,358.8188477,84.128418,357.6118164,84.378418z"/>
<path fill="#FFFFFF" d="M353.8129883,112.5112305c0.8300781-0.375,2.0996094-1.3007813,3.8066406-2.7792969
	c1.7050781-1.4775391,3.7128906-2.8095703,6.0214844-3.9960938s4.1191406-2.0820313,5.4296875-2.6855469
	s2.734375-0.9472656,4.2753906-1.0302734c1.3730469,0.4990234,2.1933594,1.3222656,2.4648438,2.4667969
	c0.2695313,1.1445313,0.1660156,2.3730469-0.3125,3.6845703s-2.2148438,3.5283203-5.2109375,6.6503906
	c4.7421875-2.7890625,8.0195313-4.7148438,9.828125-5.7763672c1.8105469-1.0615234,3.265625-1.7177734,4.3691406-1.9667969
	c1.1035156-0.25,2.0488281,0.0927734,2.8398438,1.0302734c0.7910156,0.9365234,0.7910156,2.2998047,0,4.0898438
	c-0.7910156,1.7910156-1.0507813,3.1230469-0.7792969,3.9970703c0.2695313,0.8740234,2.265625,0.7910156,5.9902344-0.25
	c3.7226563-1.0410156,6.5214844-1.9980469,8.3945313-2.8730469c-0.125,1.6240234-0.5527344,2.7792969-1.2792969,3.4667969
	c-0.7285156,0.6865234-2.9960938,1.6445313-6.8027344,2.8720703c-3.8066406,1.2285156-6.6464844,1.5820313-8.5195313,1.0615234
	c-1.8710938-0.5195313-3.0566406-1.3320313-3.5566406-2.4355469c-0.5-1.1025391-0.5625-2.2792969-0.1875-3.5283203
	s-0.7167969-0.9570313-3.2753906,0.875c-2.5585938,1.8310547-4.7949219,3.2675781-6.7089844,4.3085938
	c-1.9140625,1.0400391-3.3496094,1.7685547-4.3066406,2.1855469c-1.2890625,0-2.2988281-0.21875-3.0273438-0.6552734
	c-0.7285156-0.4375-1.1328125-1.2177734-1.2167969-2.3417969c-0.0820313-1.125,0.46875-2.1650391,1.6542969-3.1230469
	c1.1855469-0.9570313,2.3300781-1.9560547,3.4316406-2.9970703c1.1035156-1.0410156,1.7792969-2.1025391,2.0292969-3.1855469
	c0.25-1.0820313-0.3847656-1.4248047-1.9042969-1.0302734c-1.5175781,0.3955078-3.5976563,1.5097656-6.2402344,3.3408203
	c-2.6425781,1.8320313-4.3886719,2.9775391-5.2421875,3.4355469s-2.0273438,0.7490234-3.5253906,0.8740234
	C352.4594727,114.1147461,352.980957,112.8862305,353.8129883,112.5112305z"/>
<path fill="#FFFFFF" d="M365.5512695,148.2944336c4.5351563-4.9960938,8.0097656-8.4208984,10.421875-10.2734375
	c2.4140625-1.8525391,4.9511719-3.7050781,7.6132813-5.5576172c2.6640625-1.8525391,5.6484375-3.7050781,8.9570313-5.5576172
	c3.3066406-1.8535156,6.15625-3.4248047,8.5488281-4.7148438c2.3925781-1.2910156,4.9609375-2.4355469,7.7070313-3.4345703
	c-2.6210938-0.0830078-4.7734375-0.15625-6.4589844-0.21875s-2.9433594-0.625-3.7753906-1.6865234
	s-1.2167969-2.2480469-1.1542969-3.5595703s0.9667969-2.7265625,2.7148438-4.2460938
	c1.7460938-1.5195313,3.5253906-2.7373047,5.3359375-3.6533203c1.8085938-0.9160156,4.1503906-2.1025391,7.0195313-3.5595703
	h1.3730469c1.6640625,0.7910156,2.8183594,1.8105469,3.4648438,3.0595703
	c0.6445313,1.2490234,0.9355469,2.4355469,0.8730469,3.5595703s-0.3535156,2.1757813-0.8730469,3.1542969
	c-0.5214844,0.9785156-0.5722656,1.7070313-0.15625,2.1855469s1.5800781,0.4677734,3.4941406-0.03125
	c1.9140625-0.5,3.890625-1.2490234,5.9296875-2.2480469c2.0371094-0.9990234,4.2636719-0.9990234,6.6777344,0
	c-3.6210938,2.4980469-6.2832031,4.0175781-7.9882813,4.5585938c-1.7070313,0.5410156-3.7871094,1.2695313-6.2421875,2.1855469
	c-2.453125,0.9160156-4.4296875,1.8320313-5.9277344,2.7480469c-1.4980469,0.9150391-3.3398438,2.4140625-5.5234375,4.4960938
	c-2.1835938,2.0810547-4.6074219,4.9541016-7.2695313,8.6181641c-2.6640625,3.6630859-5.2949219,7.0878906-7.8945313,10.2724609
	c-2.6015625,3.1845703-4.7441406,5.7861328-6.4277344,7.8056641c-1.6855469,2.0195313-3.7871094,4.1845703-6.3046875,6.4951172
	c-2.515625,2.3105469-4.4921875,3.7880859-5.9277344,4.4335938c-1.4355469,0.6445313-2.796875,1.0507813-4.0878906,1.2177734
	h-1.3730469c-2.4550781-0.7080078-4.1074219-1.6757813-4.9609375-2.9042969s-1.4042969-2.9033203-1.6542969-5.0263672
	C362.1821289,153.9145508,363.4711914,151.2084961,365.5512695,148.2944336z M367.1118164,154.6948242
	c-0.8320313,1.6445313-1.1328125,3.1230469-0.9042969,4.4335938c0.2285156,1.3115234,0.9980469,1.8427734,2.3085938,1.5927734
	s2.6210938-0.7802734,3.9316406-1.5927734c1.3105469-0.8115234,3.171875-2.3417969,5.5859375-4.5898438
	c2.4121094-2.2480469,4.7636719-4.7978516,7.0507813-7.6494141c2.2890625-2.8525391,5.0351563-6.3701172,8.2382813-10.5537109
	c3.203125-4.1845703,6.40625-8.2333984,9.6113281-12.1464844c-2.5800781,1.4990234-5.3046875,3.1113281-8.1757813,4.8398438
	c-2.8710938,1.7275391-5.7734375,3.6533203-8.7050781,5.7763672c-2.9335938,2.1230469-5.8671875,4.6835938-8.8007813,7.6816406
	c-2.9335938,2.9970703-5.1484375,5.3701172-6.6464844,7.1181641
	C369.1079102,151.3540039,367.9438477,153.050293,367.1118164,154.6948242z M404.3383789,114.9780273
	c0.9765625,0.7285156,2.2460938,0.9160156,3.8066406,0.5615234c1.5585938-0.3535156,2.7871094-1.1025391,3.6816406-2.2480469
	c0.8945313-1.1445313,1.2265625-2.6425781,0.9980469-4.4960938c-0.2285156-1.8525391-0.9980469-2.5703125-2.3085938-2.1542969
	c-1.3105469,0.4169922-2.5488281,1.1035156-3.7128906,2.0605469c-1.1660156,0.9580078-2.1113281,2.0605469-2.8398438,3.3095703
	S403.3598633,114.2495117,404.3383789,114.9780273z"/>
</svg>
