<?xml version="1.0" encoding="utf-8"?>
<!-- Generator: Adobe Illustrator 15.1.0, SVG Export Plug-In  -->
<!DOCTYPE svg PUBLIC "-//W3C//DTD SVG 1.1//EN" "http://www.w3.org/Graphics/SVG/1.1/DTD/svg11.dtd" [
	<!ENTITY ns_flows "http://ns.adobe.com/Flows/1.0/">
]>
<svg version="1.1"
	 xmlns="http://www.w3.org/2000/svg" xmlns:xlink="http://www.w3.org/1999/xlink" xmlns:a="http://ns.adobe.com/AdobeSVGViewerExtensions/3.0/"
	 x="0px" y="0px" width="300px" height="300px" viewBox="-50 -68.733398 300 300" enable-background="new -50 -68.733398 300 300"
	 xml:space="preserve">
<defs>
</defs>
<path fill="#2CAAE1" d="M200,19.240234c-7.358398,3.263672-15.266602,5.469238-23.566406,6.460938
	C184.904297,20.623047,191.411133,12.582031,194.474609,3c-7.928711,4.702637-16.709961,8.117188-26.056641,9.957031
	C160.933594,4.982422,150.269531,0,138.467773,0c-22.660156,0-41.032715,18.371094-41.032715,41.03125
	c0,3.21582,0.362793,6.347656,1.0625,9.351074c-34.101563-1.711426-64.336426-18.046875-84.57373-42.87207
	c-3.532227,6.060059-5.555664,13.108398-5.555664,20.628418c0,14.23584,7.243652,26.794922,18.253906,34.15332
	c-6.726074-0.213379-13.053223-2.059082-18.584961-5.132324c-0.003906,0.171387-0.003906,0.342773-0.003906,0.516113
	c0,19.880371,14.144043,36.463867,32.914551,40.234375c-3.442871,0.9375-7.067871,1.439453-10.810059,1.439453
	c-2.644043,0-5.214355-0.257813-7.720215-0.736328c5.22168,16.300781,20.375,28.165039,38.330566,28.495117
	c-14.042969,11.005859-31.735352,17.56543-50.959961,17.56543c-3.312012,0-6.578125-0.194336-9.788086-0.574219
	c18.158691,11.642578,39.727051,18.436523,62.898926,18.436523c75.473145,0,116.745605-62.524414,116.745605-116.74707
	c0-1.778809-0.040039-3.54834-0.119141-5.308594C187.542969,34.695313,194.499023,27.46875,200,19.240234z"/>
</svg>
